# xmcd CD database file
#
# Track frame offsets:
#	150
#	13180
#	29360
#	47563
#	67705
#	88203
#	111348
#	130873
#	148790
#	166290
#	199903
#	226590
#	243305
#	259208
#	279770
#	295538
#	316558
#
# Disc length: 4405 seconds
#
# Revision: 1
# Processed by: cddbd v1.4PL0 Copyright (c) Steve Scherf et al.
# Submitted via: CDex 1.50beta10
#
DISCID=e2113311
DTITLE=Bengt Hallberg - The Drottningholm Suite
DYEAR=1990
DGENRE=Jazz
TTITLE0=The Drottningholm Suite - Alla svedese
TTITLE1=The Drottningholm Suite - Valsette
TTITLE2=The Drottningholm Suite - Royal rendez-vous
TTITLE3=The Drottningholm Suite - Ilha da Reina
TTITLE4=Drottningholm Theme - Allegro con spirito
TTITLE5=Blues royal
TTITLE6=Lappkungens polska
TTITLE7=Kristallen den fina
TTITLE8=Traetrall
TTITLE9=Settimino con piano - Andante
TTITLE10=Settimino con piano - Allegro
TTITLE11=Settimino con piano - Moderato
TTITLE12=Jag har bott vid en landsvag
TTITLE13=En stilla flirt
TTITLE14=Mitt eget blue Hawaii
TTITLE15=Folj mej bortaat vagen
TTITLE16=Smedslaat
EXTD=YEAR: 1990
EXTT0=
EXTT1=
EXTT2=
EXTT3=
EXTT4=
EXTT5=
EXTT6=
EXTT7=
EXTT8=
EXTT9=
EXTT10=
EXTT11=
EXTT12=
EXTT13=
EXTT14=
EXTT15=
EXTT16=
PLAYORDER=
